<?xml version="1.0" encoding="UTF-8"?>
<svg xmlns="http://www.w3.org/2000/svg" xmlns:xlink="http://www.w3.org/1999/xlink" width="0" height="0">
    <symbol id="Mouth_1" width="69" height="19" viewBox="0 0 69 19" fill="none">
        <path d="M6.38148 12.3242C-1.53185 5.44046 -0.740517 0.721996 1.63348 0.130186C5.19449 -0.75753 5.17302 3.07215 10.1403 6.22714C16.471 10.2481 49.7458 10.5666 54.8507 8.98065C61.1814 7.01388 64.1489 0.190047 66.9185 1.50692C71.4687 3.67037 68.8969 12.3242 55.8399 16.651C42.7829 20.9779 14.2948 19.2078 6.38148 12.3242Z" 
        fill="currentcolor"/>
    </symbol>

    <symbol id="Mouth_2" width="68" height="22" viewBox="0 0 68 22" fill="none">
        <path d="M6.64713 13.4504C-2.08806 4.34552 -0.495409 0.759633 1.83728 0.136972C5.33632 -0.79702 5.31522 3.2323 10.1961 6.55176C13.0837 8.51562 20.8989 6.07753 29.7796 6.55176C40.0297 7.09912 51.9741 9.37814 54.6617 8.48411C60.8822 6.41481 63.2648 0.199954 65.9863 1.58548C70.4573 3.8617 67.6859 11.1128 55.6336 18.0029C43.5814 24.8929 15.3823 22.5553 6.64713 13.4504Z" 
        fill="currentcolor"/>
    </symbol>

    <symbol id="Mouth_3" width="68" height="25" viewBox="0 0 68 25" fill="none">
        <path d="M6.78766 15.1941C-1.80298 5.0787 -0.651076 0.735178 1.69537 0.12196C5.21503 -0.797869 4.69163 3.68202 9.60127 6.95115C12.5059 8.88523 18.5392 4.07838 29.1156 5.3972C40.8671 5.3972 51.5154 9.31528 54.329 8.8542C61.6281 7.65804 63.1091 0.12196 66.1329 1.62918C70.6302 3.87088 67.12 13.8753 54.329 21.0346C41.5381 28.1939 15.3783 25.3096 6.78766 15.1941Z" 
        fill="currentcolor"/>
    </symbol>

    <symbol id="Nose_1" width="40" height="12" viewBox="0 0 40 12" fill="none">
        <path d="M1 8.5C-0.999997 6 0.500003 0.5 3 0.5C5 0.5 4 4 6.5 5C7.6596 5.46384 12.407 4.96646 18 5C24.4649 5.03877 31.8915 5.53616 33.5 5C35.3974 4.36754 35.5 0.5 37.5 0.5C39.5 0.5 40.5 7.71429 38 9.5C34.5 12 26 12 17 12C8 12 3 11 1 8.5Z" 
        fill="currentcolor"/>
    </symbol>

    <symbol id="Nose_2" width="27" height="8" viewBox="0 0 27 8" fill="none">
        <path d="M4.00001 6.49997C-1.00002 5.34611 1.07288e-06 2.49999 1.5 1C2.79622 -0.296215 7.31836 0.272819 12 0.500001C16.3478 0.710983 20.8332 0.518485 23 1C27.5 2 28 5.5 25.5 6.49997C23 7.49994 10.5 7.99997 4.00001 6.49997Z" 
        fill="currentcolor"/>
    </symbol>

    <symbol id="Nose_3" width="26" height="20" viewBox="0 0 26 20" fill="none">
        <path d="M4 17.5C-1.04654 14.5333 0.164094 7.05827 2.00002 4.25217C6.00003 -1.86159 19.5666 0.752171 23 5C26.4334 9.24783 25 14.1075 23 17.1075C21 20.1075 10.5605 21.3566 4 17.5Z" 
        fill="currentcolor"/>
    </symbol>
</svg>