<svg width="165" height="226" viewBox="0 0 165 226" fill="none" xmlns="http://www.w3.org/2000/svg">
<path d="M7.19987 157.191C23.0599 191.165 63.3696 227.279 83.5 225C92.5036 223.981 99.8319 211.324 111.148 191.78C119.313 177.678 129.555 159.989 144 140.5C148.762 134.075 157.352 123.36 164.492 114.655C163.733 112.608 162.989 110.598 162.259 108.623C148.028 70.1495 138.741 45.0416 109.678 20.5C87.1783 1.5 36.1783 -8 17.6783 10C3.05008 24.2329 7.484 40.7166 10.2259 50.91C11.0237 53.8761 11.6783 56.3096 11.6783 58C11.6783 59.9508 10.6635 61.9016 9.23219 64.653C5.16063 72.4798 -2.28127 86.7855 0.67833 126C1.49003 136.755 3.81847 147.139 7.19987 157.191Z" fill="#F7BC38"/>
</svg>
